<?xml version="1.0" encoding="UTF-8" standalone="no"?>
<svg width="20px" height="25px" viewBox="0 0 20 25" version="1.1" xmlns="http://www.w3.org/2000/svg" xmlns:xlink="http://www.w3.org/1999/xlink" xmlns:sketch="http://www.bohemiancoding.com/sketch/ns">
    <!-- Generator: Sketch 3.3.3 (12072) - http://www.bohemiancoding.com/sketch -->
    <title>Group Copy 2</title>
    <desc>Created with Sketch.</desc>
    <defs></defs>
    <g id="Page-1" stroke="none" stroke-width="1" fill="none" fill-rule="evenodd" sketch:type="MSPage">
        <g id="Group-Copy-2" sketch:type="MSLayerGroup">
            <path d="M4.6615019,13.4691514 L8.82958508,2.48475536 L11.9826993,4.36439175 L15.7912472,14.3271332 L9.06902763,16.4276411 L4.6615019,13.4691514 Z" id="Path-94" fill="#FFFFFF" sketch:type="MSShapeGroup"></path>
            <path d="M19.0872541,18.7693353 C17.4074032,20.3131277 14.6229194,22.5345182 12.9578869,23.753656 C11.7899392,24.6090733 10.9008442,24.6238916 10.1734027,24.6077262 C9.26814233,24.5875195 8.37770026,24.6077262 6.7611638,23.3953239 C5.24835502,22.261054 0.922772806,18.5901692 0.922772806,18.5901692 C0.922772806,18.5901692 0.0902567049,17.9085298 0.272116797,16.7944667 C0.451283179,15.6938746 1.23799759,15.3126416 1.23799759,15.3126416 L4.81997269,13.3418142 L4.87520461,16.7486647 L15.2479802,16.70421 L15.2627982,13.3795334 C15.2627982,13.3795334 17.8115377,14.7535894 18.6602191,15.1779303 C19.4684874,15.5820644 20.7482452,17.2430555 19.0872541,18.7693353 L19.0872541,18.7693353 Z" id="Shape" fill="#000000" sketch:type="MSShapeGroup"></path>
            <path d="M9.93765776,1.78357855 L9.9497817,1.78357855 C10.3997178,1.78223153 10.7876866,1.670421 10.8927616,1.51280878 L10.9075796,1.52223832 C10.9075796,1.52223832 10.686653,1.21240234 10.1141297,1.21240234 C9.30855592,1.21240234 9.19674539,1.51550284 9.19674539,1.51550284 C9.19674539,1.51550284 9.18327408,1.54918094 9.15902621,1.60980097 C9.2560184,1.6987103 9.53621805,1.78357855 9.93765776,1.78357855 L9.93765776,1.78357855 Z" id="Shape" fill="#000000" sketch:type="MSShapeGroup"></path>
            <path d="M16.3701258,16.4347873 C16.0966616,15.6709737 15.7073459,14.5986712 15.2627982,13.3795334 L14.380439,10.9722411 C14.380439,10.9708941 14.381786,10.969547 14.381786,10.9682 C14.0827269,10.1518489 13.776932,9.31798545 13.4751785,8.49759329 C13.4751785,8.49894032 13.4738312,8.50028769 13.4738312,8.50028769 L12.4473307,5.70233225 C11.7656913,3.85005081 11.217416,2.36014322 11.0032248,1.78357855 C10.7028183,2.02875308 10.1356836,2.0530013 9.9497817,2.0530013 L9.93900479,2.0530013 C9.62916881,2.0530013 9.27622519,2.00046377 9.05799259,1.8684468 C8.8141651,2.48946614 8.27127819,3.88103452 7.6165811,5.60668709 L6.58469182,8.46122113 C6.29506229,9.24524149 5.99735024,10.0737165 5.71580356,10.864472 L4.81997269,13.3418142 C4.34040055,14.7751432 3.9497374,16.0468185 3.73958766,16.941302 C3.52270244,17.8681163 3.44456967,18.7679882 5.76025823,20.1743749 C7.64621742,21.3194214 9.01757935,21.2722727 10.1141297,21.2843966 C11.3777226,21.299215 13.0009945,21.0971477 14.7522423,19.8362493 C16.9951866,18.2224073 16.6880447,17.3211879 16.3701258,16.4347873 L16.3701258,16.4347873 Z M8.02206224,6.05123479 C8.45448565,6.34086432 9.18192706,6.53754275 10.1154768,6.53754275 C10.8914143,6.53754275 11.571707,6.36915363 12.0216428,6.08895397 L13.0885568,9.04721568 C12.5066037,9.57258986 11.4114003,9.90128595 10.1356836,9.90128595 C8.64847003,9.90128595 7.50746463,9.52139971 6.95784223,9.00545507 L8.02206224,6.05123479 Z M10.2178574,16.2839105 C7.47648127,16.2839105 5.74678692,15.4796837 5.0907428,14.1851072 L6.00543275,11.6484923 C6.5321543,12.3880577 7.81056547,13.0872098 10.0575508,13.1518712 C12.4257769,13.2178797 13.5088563,12.4257769 14.0301894,11.6619633 L14.9583506,14.2336036 C14.2686284,15.401551 12.53624,16.2839105 10.2178574,16.2839105 L10.2178574,16.2839105 Z" id="Shape" fill="#000000" sketch:type="MSShapeGroup"></path>
            <path d="M19.0872541,17.7347519 C17.4074032,19.2785444 14.6229194,21.4999348 12.9578869,22.7190727 C11.7899392,23.5744899 10.9008442,23.5893083 10.1734027,23.5731429 C9.26814233,23.5529361 8.37770026,23.5731429 6.7611638,22.3607406 C5.24835502,21.2264707 0.922772806,17.5555859 0.922772806,17.5555859 C0.922772806,17.5555859 0.0902567049,16.8739465 0.272116797,15.7598834 C0.451283179,14.6592912 1.23799759,14.2780583 1.23799759,14.2780583 L4.81997269,12.3072309 L4.87520461,15.7140814 L15.2479802,15.6696267 L15.2627982,12.34495 C15.2627982,12.34495 17.8115377,13.719006 18.6602191,14.1433469 C19.4684874,14.5474811 20.7482452,16.2084722 19.0872541,17.7347519 L19.0872541,17.7347519 Z" id="Shape-Copy-3" fill="#F09015" sketch:type="MSShapeGroup"></path>
            <path d="M9.93765776,0.748995223 L9.9497817,0.748995223 C10.3997178,0.747648196 10.7876866,0.635837672 10.8927616,0.478225454 L10.9075796,0.487654991 C10.9075796,0.487654991 10.686653,0.17781901 10.1141297,0.17781901 C9.30855592,0.17781901 9.19674539,0.480919509 9.19674539,0.480919509 C9.19674539,0.480919509 9.18327408,0.51459761 9.15902621,0.575217641 C9.2560184,0.664126973 9.53621805,0.748995223 9.93765776,0.748995223 L9.93765776,0.748995223 Z" id="Shape-Copy" fill="#F09015" sketch:type="MSShapeGroup"></path>
            <path d="M16.3701258,15.4002039 C16.0966616,14.6363904 15.7073459,13.5640879 15.2627982,12.34495 L14.380439,9.93765776 C14.380439,9.93631073 14.381786,9.93496371 14.381786,9.93361668 C14.0827269,9.1172656 13.776932,8.28340212 13.4751785,7.46300996 C13.4751785,7.46435699 13.4738312,7.46570436 13.4738312,7.46570436 L12.4473307,4.66774892 C11.7656913,2.81546748 11.217416,1.32555989 11.0032248,0.748995223 C10.7028183,0.994169746 10.1356836,1.01841797 9.9497817,1.01841797 L9.93900479,1.01841797 C9.62916881,1.01841797 9.27622519,0.965880445 9.05799259,0.833863473 C8.8141651,1.45488281 8.27127819,2.84645119 7.6165811,4.57210376 L6.58469182,7.4266378 C6.29506229,8.21065816 5.99735024,9.03913317 5.71580356,9.82988866 L4.81997269,12.3072309 C4.34040055,13.7405599 3.9497374,15.0122352 3.73958766,15.9067187 C3.52270244,16.8335329 3.44456967,17.7334049 5.76025823,19.1397916 C7.64621742,20.2848381 9.01757935,20.2376894 10.1141297,20.2498133 C11.3777226,20.2646316 13.0009945,20.0625644 14.7522423,18.801666 C16.9951866,17.1878239 16.6880447,16.2866046 16.3701258,15.4002039 L16.3701258,15.4002039 Z M8.02206224,5.01665146 C8.45448565,5.30628099 9.18192706,5.50295942 10.1154768,5.50295942 C10.8914143,5.50295942 11.571707,5.3345703 12.0216428,5.05437064 L13.0885568,8.01263235 C12.5066037,8.53800653 11.4114003,8.86670262 10.1356836,8.86670262 C8.64847003,8.86670262 7.50746463,8.48681638 6.95784223,7.97087174 L8.02206224,5.01665146 Z M10.2178574,15.2493272 C7.47648127,15.2493272 5.74678692,14.4451004 5.0907428,13.1505239 L6.00543275,10.613909 C6.5321543,11.3534744 7.81056547,12.0526265 10.0575508,12.1172879 C12.4257769,12.1832964 13.5088563,11.3911935 14.0301894,10.62738 L14.9583506,13.1990203 C14.2686284,14.3669676 12.53624,15.2493272 10.2178574,15.2493272 L10.2178574,15.2493272 Z" id="Shape-Copy-2" fill="#F09015" sketch:type="MSShapeGroup"></path>
        </g>
    </g>
</svg>